<svg width="497" height="497" viewBox="0 0 497 497" fill="none" xmlns="http://www.w3.org/2000/svg">
<g clip-path="url(#clip0_3_2)">
<path d="M0 248.08C0 111.06 111.069 0.0019989 248.074 0.0019989C385.087 0.0019989 496.156 111.061 496.156 248.08C496.156 385.085 385.087 496.154 248.074 496.154C111.069 496.154 0 385.085 0 248.08Z" fill="url(#paint0_linear_3_2)"/>
<path d="M137.613 279.602C137.613 218.587 187.07 169.138 248.078 169.138C309.079 169.138 358.541 218.587 358.541 279.602C358.541 340.61 309.079 390.066 248.078 390.066C187.07 390.066 137.613 340.61 137.613 279.602Z" fill="#444444"/>
<path d="M312.183 121.373L303.564 130.659H309.363C312.163 130.659 314.435 128.387 314.435 125.587C314.435 123.83 313.544 122.277 312.183 121.373Z" fill="#444444"/>
<path d="M309.363 120.515H303.201L293.782 130.66H303.564L312.183 121.374C311.377 120.831 310.406 120.515 309.363 120.515Z" fill="#444444"/>
<path d="M244.551 151.842C241.75 151.842 239.479 149.563 239.479 146.77V145.475C239.465 135.257 239.459 125.608 245.72 119.333C249.637 115.416 255.336 113.515 263.15 113.515H309.364C312.164 113.515 314.436 115.786 314.436 118.587C314.436 121.387 312.164 123.659 309.364 123.659H263.15C258.164 123.659 254.815 124.59 252.9 126.499C249.604 129.802 249.61 137.061 249.624 145.468V146.77C249.623 149.562 247.351 151.842 244.551 151.842Z" fill="#444444"/>
<path d="M278.928 176.537C278.928 185.717 212.426 185.717 212.426 176.537V157.31C212.426 148.122 219.869 140.679 229.05 140.679H262.305C271.485 140.679 278.928 148.122 278.928 157.31V176.537Z" fill="#444444"/>
<path d="M324.627 102.986L320.101 116.334L328.523 127.622L314.441 127.443L306.305 138.942L302.124 125.495L288.67 121.307L300.176 113.178L299.997 99.09L311.285 107.511L324.627 102.986Z" fill="#444444"/>
</g>
<defs>
<linearGradient id="paint0_linear_3_2" x1="42.5" y1="105.5" x2="473" y2="408" gradientUnits="userSpaceOnUse">
<stop offset="0.203125" stop-color="#FFFF00"/>
<stop offset="0.510417" stop-color="#FAE20E"/>
<stop offset="0.78125" stop-color="#FFD600"/>
</linearGradient>
<clipPath id="clip0_3_2">
<rect width="496.156" height="496.156" fill="white"/>
</clipPath>
</defs>
</svg>
