<?xml version="1.0" encoding="utf-8"?>
<!-- Generator: Adobe Illustrator 16.0.0, SVG Export Plug-In . SVG Version: 6.00 Build 0)  -->
<!DOCTYPE svg PUBLIC "-//W3C//DTD SVG 1.1//EN" "http://www.w3.org/Graphics/SVG/1.1/DTD/svg11.dtd">
<svg version="1.1" id="Capa_1" xmlns="http://www.w3.org/2000/svg" xmlns:xlink="http://www.w3.org/1999/xlink" x="0px" y="0px"
	 width="171.425px" height="166px" viewBox="0 0 171.425 166" enable-background="new 0 0 171.425 166" xml:space="preserve">
<g>
	<path fill="#FFFFFF" d="M98.858,53.38v-8.43h-13.75c0.239-17.49,13.119-28.77,32.949-28.77v-3.99
		c-22.239,0-36.689,12.83-36.93,32.76h-13.79v7.84c-20.229,6.23-34.899,24.83-34.899,46.83c0,27.12,22.279,49.06,49.789,49.06
		c27.471,0,49.761-21.96,49.761-49.06C131.988,78.27,118.158,60.12,98.858,53.38z M72.938,99.46H54.378v-3.98h18.561V99.46z
		 M111.908,103.77l-6.2-1.9l-2.38,6.04l-2.38-6.04l-6.2,1.9l3.229-5.62l-5.35-3.67l6.41-0.98l-0.47-6.47l4.76,4.41l4.76-4.41
		l-0.47,6.47l6.41,0.98l-5.351,3.67L111.908,103.77z"/>
</g>
</svg>
