<?xml version="1.0" encoding="utf-8"?>
<!-- Generator: Adobe Illustrator 16.0.0, SVG Export Plug-In . SVG Version: 6.00 Build 0)  -->
<!DOCTYPE svg PUBLIC "-//W3C//DTD SVG 1.1//EN" "http://www.w3.org/Graphics/SVG/1.1/DTD/svg11.dtd">
<svg version="1.1" id="Capa_1" xmlns="http://www.w3.org/2000/svg" xmlns:xlink="http://www.w3.org/1999/xlink" x="0px" y="0px"
	 width="301.485px" height="118.452px" viewBox="0 0 301.485 118.452" enable-background="new 0 0 301.485 118.452"
	 xml:space="preserve">
<g>
	<path fill="#FFFFFF" d="M213.968,48.675c-0.16-0.17-0.33-0.34-0.5-0.51c-0.16-0.17-0.33-0.33-0.5-0.49
		c-2.57-2.471-5.69-4.391-9.141-5.58v-4.311h-6.89c0.12-8.789,6.58-14.449,16.53-14.449v-2c-11.16,0-18.41,6.439-18.53,16.449h-6.92
		v4.101c-3.98,1.261-7.52,3.479-10.35,6.38c3.359,3.7,5.64,8.37,6.35,13.53c0.07,0.44,0.12,0.87,0.15,1.319h7.479v2h-7.38v0.17
		c0,0.701-0.03,1.391-0.09,2.07c-0.03,0.48-0.09,0.95-0.16,1.42c-0.71,5.16-2.99,9.82-6.35,13.521
		c4.529,4.649,10.899,7.55,17.949,7.55c6.74,0,12.86-2.65,17.351-6.96c0.17-0.149,0.34-0.319,0.5-0.489
		c0.17-0.171,0.34-0.341,0.5-0.511c4.08-4.38,6.569-10.21,6.569-16.601C220.537,58.896,218.048,53.055,213.968,48.675z
		 M211.237,67.275l-3.12-0.949l-1.189,3.029l-1.2-3.029l-3.11,0.949l1.62-2.82l-2.68-1.84l3.21-0.489l-0.23-3.24l2.391,2.21
		l2.39-2.21l-0.24,3.24l3.221,0.489l-2.69,1.84L211.237,67.275z"/>
	<g>
		<path fill="#FFFFFF" d="M261.558,40.935h-12.17c-0.24,0-0.48,0.08-0.65,0.26c-4.399,4.381-10.26,20.5-10.26,20.5
			s-5.87-16.119-10.26-20.5c-0.181-0.17-0.41-0.26-0.65-0.26h-12.16c-0.52,0-0.939,0.42-0.939,0.94v4.899
			c0.17,0.141,0.34,0.301,0.5,0.471c4.67,4.63,7.569,11,7.569,18.039c0,7.041-2.899,13.4-7.569,18.031
			c-0.16,0.17-0.33,0.33-0.5,0.469v4.221c0,0.51,0.42,0.93,0.939,0.93h11.601c0.52,0,0.939-0.41,0.939-0.93v-23.33l3.561,15.05
			c0.1,0.421,0.479,0.72,0.91,0.72h12.119c0.431,0,0.811-0.299,0.91-0.72l3.57-15.05v23.33c0,0.51,0.41,0.93,0.93,0.93h11.61
			c0.51,0,0.93-0.41,0.93-0.93v-46.13C262.487,41.355,262.077,40.935,261.558,40.935z"/>
	</g>
	<g>
		<path fill="#FFFFFF" d="M134.088,63.135l-0.301-0.319l0.28-0.351c0.01-0.011,1.45-1.83,1.45-6.729c0-1.221-0.1-2.381-0.28-3.471
			c-0.04-0.25-0.09-0.49-0.149-0.73c-0.04-0.219-0.09-0.439-0.15-0.649c-1.479-5.87-5.79-9.45-11.8-9.45h-21.63
			c-0.24,0-0.431,0.19-0.431,0.44v19.771l9.48,25.559c0.05,0.171,0.08,0.33,0.08,0.5v0.301c0,0.15-0.021,0.29-0.07,0.43h15.26
			c4.16,0,8.341-2.189,10.53-6.91c0.07-0.16,0.15-0.33,0.21-0.5c0.08-0.18,0.15-0.359,0.22-0.55c0.721-1.909,1.131-4.19,1.131-6.85
			C137.907,67.246,134.128,63.175,134.088,63.135z M113.558,52.576c0-0.53,0.44-0.961,0.97-0.961h4.311
			c2.239,0,4.06,1.811,4.06,4.051c0,2.23-1.82,4.05-4.06,4.05h-4.311c-0.529,0-0.97-0.431-0.97-0.97V52.576z M121.048,78.265h-6.521
			c-0.529,0-0.97-0.439-0.97-0.97v-6.17c0-0.53,0.44-0.96,0.97-0.96h6.521c2.229,0,4.05,1.81,4.05,4.05
			C125.098,76.445,123.277,78.265,121.048,78.265z"/>
	</g>
	<g>
		<path fill="#FFFFFF" d="M108.617,87.555l-8.54-23.03l-0.5-1.35l-0.5-1.34l-7.46-20.12c-0.06-0.17-0.22-0.28-0.399-0.28h-11.83
			c-0.18,0-0.34,0.11-0.4,0.28l-12.1,32.649l6.17,4.9c0.3,0.24,0.5,0.59,0.54,0.98c0.04,0.38-0.07,0.75-0.3,1.039
			c-2.511,3.101-5.641,5.531-9.15,7.16h10.05c0.181,0,0.34-0.119,0.41-0.289l2.7-7.221h16.03l2.67,7.221
			c0.06,0.17,0.229,0.279,0.41,0.279h11.779c0.24,0,0.44-0.189,0.44-0.43v-0.301C108.638,87.656,108.628,87.605,108.617,87.555z
			 M81.298,70.146l4-10.791l4.04,10.791H81.298z"/>
	</g>
	<g>
		<path fill="#FFFFFF" d="M71.6,80.351c0.02,0.11-0.01,0.221-0.08,0.301c-2.8,3.47-6.42,6.06-10.47,7.58
			c-0.16,0.07-0.32,0.13-0.49,0.18c-0.15,0.061-0.31,0.12-0.47,0.16c-2.49,0.84-5.13,1.27-7.83,1.27
			c-13.61,0-24.69-11.02-24.69-24.56c0-13.55,11.08-24.57,24.69-24.57c7.5,0,14.51,3.341,19.22,9.15c0.07,0.079,0.1,0.19,0.09,0.3
			c-0.02,0.12-0.08,0.23-0.17,0.3l-9.25,7.33c-0.17,0.14-0.439,0.12-0.58-0.04c-2.42-2.74-5.979-4.439-9.3-4.439
			c-6.64,0-12.04,5.369-12.04,11.97s5.4,11.97,12.04,11.97c3.34,0,6.92-1.72,9.34-4.5c0.25-0.29,0.45-0.14,0.59-0.04l2.49,1.979
			l0.42,0.33l0.41,0.33l5.92,4.69C71.529,80.122,71.59,80.232,71.6,80.351z"/>
	</g>
	<g>
		<path fill="#FFFFFF" d="M175.989,48.996c-0.11-0.13-0.23-0.25-0.351-0.38c-0.109-0.12-0.22-0.24-0.34-0.351
			c-2.72-2.79-6.11-4.96-9.91-6.229v-4.5h-6.899c0.119-8.78,6.579-14.45,16.529-14.45v-2c-11.16,0-18.41,6.45-18.529,16.45h-6.921
			v4.409c-5.119,1.66-9.5,4.91-12.539,9.16c0.319,1.4,0.489,2.94,0.489,4.63c0,4.12-0.97,6.23-1.439,7.021
			c0.92,1.09,3.83,5.05,3.84,10.87c0,3.04-0.51,5.609-1.38,7.74c4.56,5.189,11.31,8.479,18.81,8.479c7.05,0,13.42-2.9,17.95-7.55
			c0.12-0.11,0.23-0.23,0.34-0.351c0.12-0.119,0.23-0.239,0.351-0.369c3.899-4.341,6.279-10.051,6.279-16.29
			C182.269,59.045,179.889,53.335,175.989,48.996z M153.199,64.866h-9.311v-2h9.311V64.866z M172.789,67.025l-3.11-0.949l-1.2,3.029
			l-1.199-3.029l-3.11,0.949l1.62-2.819l-2.681-1.84l3.221-0.49l-0.24-3.25l2.39,2.21l2.391-2.21l-0.24,3.25l3.22,0.49l-2.68,1.84
			L172.789,67.025z"/>
	</g>
</g>
</svg>
