<svg width="512" height="512" viewBox="0 0 512 512" fill="none" xmlns="http://www.w3.org/2000/svg">
<g clip-path="url(#clip0_2_6)">
<path d="M441.658 104.515L418.049 80.906C398.522 61.368 366.733 61.379 347.217 80.906L339.348 88.775L315.734 65.161C309.213 58.64 298.647 58.64 292.125 65.161L247.55 109.736C225.851 100.554 202.306 95.726 178 95.726C130.375 95.726 85.657 114.22 52.076 147.802C-17.359 217.237 -17.359 330.221 52.076 399.655C85.658 433.237 130.375 451.731 178 451.731C225.625 451.731 270.348 433.237 303.93 399.655C337.512 366.073 356.006 321.356 356.006 273.731C356.006 249.425 351.178 225.88 341.996 204.18L386.571 159.605C393.092 153.089 393.092 142.513 386.571 135.996L362.957 112.382L370.826 104.513C377.332 98.007 387.923 97.997 394.44 104.513L418.049 128.122C421.31 131.383 425.582 133.014 429.853 133.014C434.124 133.014 438.397 131.383 441.657 128.122C448.179 121.607 448.179 111.03 441.658 104.515ZM280.321 376.047C253.044 403.319 216.707 418.34 178 418.34C139.293 418.34 102.962 403.318 75.685 376.047C19.271 319.629 19.271 227.83 75.685 171.411C102.962 144.139 139.293 129.118 178 129.118C200.581 129.118 222.351 134.239 241.991 143.914C242.465 144.219 242.948 144.513 243.456 144.77C255.44 150.852 266.384 158.435 276.068 167.34C276.198 167.46 276.327 167.582 276.456 167.702C277.766 168.915 279.056 170.15 280.319 171.412C281.581 172.675 282.814 173.965 284.029 175.275C284.149 175.404 284.271 175.534 284.391 175.665C293.296 185.348 300.88 196.293 306.961 208.277C307.218 208.786 307.512 209.268 307.817 209.742C317.492 229.382 322.613 251.153 322.613 273.733C322.615 312.439 307.593 348.77 280.321 376.047ZM325.329 173.631C319.861 165.608 313.709 157.979 306.885 150.831C305.912 149.81 304.927 148.8 303.929 147.802C302.931 146.805 301.921 145.82 300.9 144.846C293.752 138.023 286.123 131.87 278.1 126.402L303.928 100.574L351.157 147.803L325.329 173.631Z" fill="white"/>
<path d="M507.107 167.232L495.978 156.102C489.467 149.581 478.891 149.581 472.369 156.102C465.848 162.618 465.848 173.189 472.369 179.711L483.499 190.841C486.76 194.102 491.032 195.733 495.303 195.733C499.574 195.733 503.847 194.102 507.107 190.841C513.629 184.325 513.629 173.754 507.107 167.232Z" fill="white"/>
<path d="M440.326 156.102C433.805 149.58 423.229 149.58 416.718 156.102L405.588 167.232C399.067 173.753 399.067 184.324 405.588 190.841C408.849 194.102 413.121 195.733 417.392 195.733C421.663 195.733 425.936 194.102 429.196 190.841L440.326 179.711C446.847 173.189 446.847 162.619 440.326 156.102Z" fill="white"/>
<path d="M507.11 89.319C503.849 86.058 499.577 84.427 495.305 84.427C491.033 84.427 486.761 86.058 483.501 89.319L472.371 100.449C465.85 106.97 465.85 117.541 472.371 124.058C478.892 130.579 489.468 130.579 495.98 124.058L507.11 112.928C513.631 106.407 513.631 95.836 507.11 89.319Z" fill="white"/>
<path d="M256.762 328.711C250.24 322.189 239.675 322.189 233.153 328.711C218.42 343.444 198.859 351.558 178.087 351.558C157.315 351.558 137.756 343.444 123.021 328.711C116.5 322.19 105.934 322.19 99.412 328.711C92.891 335.227 92.891 345.803 99.412 352.32C120.45 373.363 148.39 384.95 178.086 384.95C207.782 384.95 235.722 373.363 256.76 352.32C263.283 345.803 263.283 335.227 256.762 328.711Z" fill="white"/>
</g>
<defs>
<clipPath id="clip0_2_6">
<rect width="512.001" height="512.001" fill="white"/>
</clipPath>
</defs>
</svg>
